<svg width="48" height="48" viewBox="0 0 48 48" fill="none" xmlns="http://www.w3.org/2000/svg">
<circle cx="24" cy="24" r="16.56" stroke="black" stroke-width="2.88"/>
<path d="M21.3499 28.6482V28.2987C21.3568 27.0993 21.463 26.1433 21.6686 25.4306C21.8811 24.7179 22.1895 24.1422 22.5938 23.7036C22.9981 23.265 23.4847 22.8675 24.0535 22.5111C24.4784 22.237 24.8588 21.9526 25.1946 21.6579C25.5304 21.3632 25.7977 21.0377 25.9964 20.6813C26.1951 20.3181 26.2945 19.9138 26.2945 19.4683C26.2945 18.9954 26.1814 18.5808 25.9553 18.2245C25.7291 17.8681 25.4242 17.594 25.0404 17.4021C24.6635 17.2102 24.2454 17.1142 23.7862 17.1142C23.3408 17.1142 22.9193 17.2136 22.5218 17.4123C22.1243 17.6042 21.7988 17.8921 21.5453 18.2759C21.2917 18.6528 21.1546 19.1222 21.1341 19.6842H16.9399C16.9742 18.3135 17.3031 17.1828 17.9268 16.2918C18.5504 15.3941 19.3762 14.7259 20.4042 14.2873C21.4322 13.8418 22.5664 13.6191 23.8068 13.6191C25.1706 13.6191 26.3768 13.8453 27.4253 14.2976C28.4738 14.743 29.2962 15.3907 29.8924 16.2405C30.4887 17.0902 30.7868 18.1148 30.7868 19.3141C30.7868 20.1159 30.6532 20.8287 30.3859 21.4523C30.1255 22.0691 29.7588 22.6174 29.2859 23.0971C28.8131 23.5699 28.2545 23.9983 27.6103 24.382C27.0689 24.7042 26.6235 25.04 26.274 25.3895C25.9313 25.739 25.6743 26.1433 25.503 26.6025C25.3385 27.0616 25.2528 27.627 25.246 28.2987V28.6482H21.3499ZM23.3853 35.2272C22.7 35.2272 22.1141 34.9874 21.6275 34.5076C21.1478 34.0211 20.9113 33.4386 20.9182 32.7601C20.9113 32.0885 21.1478 31.5128 21.6275 31.0331C22.1141 30.5534 22.7 30.3135 23.3853 30.3135C24.0364 30.3135 24.6086 30.5534 25.1021 31.0331C25.5955 31.5128 25.8456 32.0885 25.8525 32.7601C25.8456 33.2124 25.7257 33.627 25.4927 34.0039C25.2665 34.374 24.9684 34.6721 24.5984 34.8983C24.2283 35.1176 23.8239 35.2272 23.3853 35.2272Z" fill="black"/>
</svg>
