<svg width="48" height="48" viewBox="0 0 48 48" fill="none" xmlns="http://www.w3.org/2000/svg">
<path fill-rule="evenodd" clip-rule="evenodd" d="M24.8044 9.59461L25.3651 11.4437L27.2806 11.698C30.5083 12.1264 33.0001 14.8947 33.0001 18.2401V28.6236C33.0001 30.9849 34.8056 32.3994 36.2729 32.8334L37.1238 29.9566L36.2729 32.8334C36.9829 33.0434 37.5059 33.6804 37.5561 34.4401H36.0001H12.0001H10.444C10.4942 33.6804 11.0172 33.0434 11.7272 32.8334L10.8763 29.9566L11.7272 32.8334C13.1946 32.3994 15.0001 30.9849 15.0001 28.6236V18.2401C15.0001 14.8947 17.4918 12.1264 20.7194 11.698L22.6349 11.4437L23.1956 9.59462C23.3009 9.24742 23.6255 9 24 9C24.3745 9 24.6991 9.24742 24.8044 9.59461ZM18.5449 37.4401H12.0001L8.64006 37.4401C7.97732 37.4401 7.44006 36.9028 7.44006 36.2401V34.5601C7.44006 32.3829 8.88961 30.5443 10.8763 29.9566C11.4898 29.7751 12.0001 29.2634 12.0001 28.6236V18.2401C12.0001 13.3706 15.6256 9.34786 20.3247 8.72409C20.8027 7.14755 22.2673 6 24 6C25.7327 6 27.1973 7.14755 27.6753 8.72407C32.3744 9.34779 36.0001 13.3705 36.0001 18.2401V28.6236C36.0001 29.2634 36.5103 29.7751 37.1238 29.9566C39.1105 30.5443 40.5601 32.3829 40.5601 34.5601V36.2401C40.5601 36.9028 40.0228 37.4401 39.3601 37.4401L36.0001 37.4401H29.215C28.8115 40.0235 26.5766 42 23.88 42C21.1834 42 18.9485 40.0235 18.5449 37.4401ZM21.2562 37.4401C21.6114 38.5504 22.6518 39.3543 23.88 39.3543C25.1081 39.3543 26.1486 38.5504 26.5038 37.4401H21.2562Z" fill="black"/>
</svg>
