<svg width="48" height="48" viewBox="0 0 48 48" fill="none" xmlns="http://www.w3.org/2000/svg">
<path fill-rule="evenodd" clip-rule="evenodd" d="M34.7952 18.2953H28.6175C26.6492 18.2953 25.0535 16.6996 25.0535 14.7313V8.79114H14.124C13.7303 8.79114 13.4112 9.11027 13.4112 9.50394V21.1199H34.7952V18.2953ZM8.4 21.1199H10.56V9.50394C10.56 7.5356 12.1557 5.93994 14.124 5.93994H25.0535H28.1423H28.2946L37.6464 15.2918V21.1199H39.6C40.9255 21.1199 42 22.1945 42 23.5199V32.3999C42 33.7254 40.9255 34.7999 39.6 34.7999H37.6464V38.0159C37.6464 39.9843 36.0507 41.5799 34.0824 41.5799H14.124C12.1557 41.5799 10.56 39.9843 10.56 38.0159V34.7999H8.4C7.07452 34.7999 6 33.7254 6 32.3999V23.5199C6 22.1945 7.07452 21.1199 8.4 21.1199ZM34.7952 38.0159V34.7999H13.4112V38.0159C13.4112 38.4096 13.7303 38.7287 14.124 38.7287H34.0824C34.4761 38.7287 34.7952 38.4096 34.7952 38.0159ZM27.9047 9.73458V14.7313C27.9047 15.1249 28.2238 15.4441 28.6175 15.4441H33.6142L27.9047 9.73458ZM14.6763 24.2189V32H16.3214V29.4772H17.7044C18.3021 29.4772 18.8113 29.367 19.2317 29.1467C19.6547 28.9263 19.9777 28.6186 20.2005 28.2234C20.4234 27.8283 20.5349 27.3724 20.5349 26.8557C20.5349 26.339 20.4247 25.883 20.2043 25.4879C19.9865 25.0902 19.6699 24.78 19.2545 24.5571C18.8391 24.3316 18.3363 24.2189 17.7462 24.2189H14.6763ZM16.3214 28.1589H17.4384C17.755 28.1589 18.0159 28.1044 18.2211 27.9955C18.4288 27.884 18.5833 27.7308 18.6846 27.5358C18.7885 27.3382 18.8404 27.1115 18.8404 26.8557C18.8404 26.5973 18.7885 26.3719 18.6846 26.1794C18.5833 25.9844 18.4288 25.8336 18.2211 25.7273C18.0134 25.6183 17.75 25.5639 17.4308 25.5639H16.3214V28.1589ZM21.6035 32H24.3618C25.1521 32 25.8309 31.8442 26.3982 31.5327C26.9682 31.2211 27.4051 30.7741 27.709 30.1915C28.0155 29.6089 28.1687 28.9124 28.1687 28.1019C28.1687 27.2939 28.0155 26.5998 27.709 26.0198C27.4051 25.4398 26.9707 24.9953 26.4058 24.6862C25.841 24.3747 25.1673 24.2189 24.3846 24.2189H21.6035V32ZM24.2934 30.5904H23.2486V25.6285H24.2972C24.7835 25.6285 25.1926 25.7146 25.5244 25.8868C25.8562 26.0591 26.1057 26.3276 26.2729 26.6923C26.4426 27.057 26.5274 27.5269 26.5274 28.1019C26.5274 28.6819 26.4426 29.1555 26.2729 29.5228C26.1057 29.8876 25.8549 30.1573 25.5206 30.3321C25.1888 30.5043 24.7797 30.5904 24.2934 30.5904ZM29.3874 24.2189V32H31.0325V28.7857H34.1974V27.4294H31.0325V25.5753H34.5393V24.2189H29.3874Z" fill="#FF0000"/>
</svg>
