<svg width="48" height="48" viewBox="0 0 48 48" fill="none" xmlns="http://www.w3.org/2000/svg">
<path fill-rule="evenodd" clip-rule="evenodd" d="M28.5599 18.4799H34.7999V38.4C34.7999 38.7976 34.4776 39.12 34.0799 39.12H23.9998V42H34.0799C36.0682 42 37.6799 40.3882 37.6799 38.4V15.4461L28.2338 6H28.0799H24.9599H13.9199C11.9317 6 10.3199 7.61177 10.3199 9.6V38.4C10.3199 40.3882 11.9317 42 13.9199 42H15.3599V39.12H13.9199C13.5223 39.12 13.1999 38.7976 13.1999 38.4V9.6C13.1999 9.20235 13.5223 8.88 13.9199 8.88H24.9599V14.8799C24.9599 16.8682 26.5717 18.4799 28.5599 18.4799ZM27.8399 9.83294V14.8799C27.8399 15.2776 28.1622 15.5999 28.5599 15.5999H33.6069L27.8399 9.83294ZM31.1999 21.12H16.7999V24.24H31.1999V21.12ZM16.7999 25.68H31.1999V28.8H16.7999V25.68ZM23.5199 16.56H16.7999V19.68H23.5199V16.56Z" fill="black"/>
<path fill-rule="evenodd" clip-rule="evenodd" d="M19.1099 31.6374C19.3019 30.7875 20.5127 30.7875 20.7047 31.6374C20.8291 32.1881 21.4611 32.4499 21.9385 32.1484C22.6752 31.6833 23.5314 32.5395 23.0662 33.2761C22.7647 33.7535 23.0265 34.3855 23.5773 34.5099C24.4271 34.7019 24.4271 35.9127 23.5773 36.1047C23.0265 36.2291 22.7647 36.8611 23.0662 37.3386C23.5018 38.0284 22.7785 38.8232 22.0799 38.5392V44.88L19.9199 43.32L17.7599 44.88V38.5285C17.0536 38.8423 16.3075 38.0367 16.7484 37.3386C17.0499 36.8611 16.7881 36.2291 16.2373 36.1047C15.3875 35.9127 15.3875 34.7019 16.2373 34.5099C16.7881 34.3855 17.0499 33.7535 16.7484 33.2761C16.2832 32.5395 17.1394 31.6833 17.8761 32.1484C18.3535 32.4499 18.9855 32.1881 19.1099 31.6374ZM22.0673 35.3073C22.0673 36.5003 21.1002 37.4673 19.9073 37.4673C18.7144 37.4673 17.7473 36.5003 17.7473 35.3073C17.7473 34.1144 18.7144 33.1473 19.9073 33.1473C21.1002 33.1473 22.0673 34.1144 22.0673 35.3073Z" fill="black"/>
</svg>
