<svg width="48" height="48" viewBox="0 0 48 48" fill="none" xmlns="http://www.w3.org/2000/svg">
<g clip-path="url(#clip0_961_878)">
<path fill-rule="evenodd" clip-rule="evenodd" d="M27.8255 12.3942C32.0867 16.6554 32.0867 23.5643 27.8255 27.8255C23.5642 32.0868 16.6554 32.0868 12.3941 27.8255C8.13286 23.5643 8.13286 16.6554 12.3941 12.3942C16.6554 8.13293 23.5642 8.13293 27.8255 12.3942ZM31.4835 28.1246C35.3193 22.6949 34.8071 15.1331 29.9468 10.2729C24.514 4.84003 15.7056 4.84003 10.2728 10.2729C4.83997 15.7057 4.83997 24.514 10.2728 29.9469C15.3205 34.9946 23.2823 35.3524 28.7431 31.0202C28.7673 31.0472 28.7924 31.0736 28.8183 31.0995L39.1058 41.3871C39.8869 42.1681 41.1532 42.1681 41.9343 41.3871C42.7153 40.606 42.7153 39.3397 41.9343 38.5587L31.6467 28.2711C31.5944 28.2188 31.5399 28.1699 31.4835 28.1246Z" fill="black"/>
</g>
<defs>
<clipPath id="clip0_961_878">
<rect width="48" height="48" fill="white"/>
</clipPath>
</defs>
</svg>
