<svg width="48" height="48" viewBox="0 0 48 48" fill="none" xmlns="http://www.w3.org/2000/svg">
<mask id="path-1-inside-1_964_1030" fill="white">
<path fill-rule="evenodd" clip-rule="evenodd" d="M27.7329 7.0492C27.6569 6.44956 27.1468 6 26.5424 6H21.4717C20.8612 6 20.3481 6.4583 20.2793 7.06487L20.0154 9.3933C19.9611 9.87275 19.6232 10.2686 19.1686 10.4305C18.7082 10.5944 18.2585 10.7811 17.821 10.9893C17.3906 11.194 16.8787 11.1569 16.502 10.8649L14.6887 9.45926C14.2109 9.08895 13.5324 9.13176 13.105 9.55916L9.51941 13.1447C9.08775 13.5764 9.04895 14.2633 9.42925 14.7408L10.8423 16.515C11.1425 16.892 11.1838 17.41 10.9776 17.8455C10.7894 18.243 10.6189 18.6505 10.467 19.067C10.3029 19.5171 9.90898 19.8506 9.43301 19.9045L7.18486 20.1593C6.57829 20.2281 6.12 20.7412 6.12 21.3517V26.4224C6.12 27.0268 6.56955 27.5369 7.1692 27.6129L9.37656 27.8925C9.85216 27.9527 10.2419 28.2919 10.3998 28.7445C10.568 29.2267 10.7611 29.6972 10.9776 30.1545C11.1838 30.5901 11.1425 31.1081 10.8423 31.485L9.42929 33.2592C9.04899 33.7367 9.08779 34.4237 9.51944 34.8553L13.105 38.4409C13.5324 38.8683 14.211 38.9111 14.6887 38.5408L16.502 37.1352C16.8788 36.8431 17.3907 36.806 17.8211 37.0107C18.2586 37.2189 18.7082 37.4056 19.1686 37.5695C19.6232 37.7314 19.9611 38.1272 20.0154 38.6067L20.2793 40.9351C20.3481 41.5417 20.8612 42 21.4717 42H26.5424C27.1468 42 27.6569 41.5504 27.7329 40.9508L28.034 38.5733C28.0937 38.1022 28.4273 37.7148 28.8742 37.5541C29.3049 37.3992 29.7261 37.2243 30.1367 37.0306C30.5719 36.8253 31.0891 36.8669 31.4656 37.1667L33.3791 38.6907C33.8567 39.071 34.5436 39.0322 34.9753 38.6006L38.5608 35.015C38.9882 34.5876 39.031 33.909 38.6607 33.4313L37.1453 31.4763C36.8537 31.1001 36.8162 30.5891 37.02 30.159C37.233 29.7096 37.4234 29.2473 37.5897 28.7737C37.7483 28.3224 38.1375 27.9845 38.6121 27.9243L41.0708 27.6129C41.6704 27.5369 42.12 27.0268 42.12 26.4224V21.3517C42.12 20.7412 41.6617 20.2281 41.0551 20.1593L38.5564 19.8761C38.0813 19.8223 37.6879 19.4899 37.5232 19.041C37.3732 18.632 37.2051 18.2317 37.02 17.841C36.8162 17.4109 36.8537 16.8999 37.1453 16.5237L38.6607 14.5687C39.031 14.091 38.9882 13.4124 38.5608 12.985L34.9753 9.39947C34.5436 8.96782 33.8567 8.92901 33.3792 9.30931L31.4656 10.8333C31.0892 11.1331 30.572 11.1747 30.1367 10.9694C29.7262 10.7757 29.305 10.6008 28.8742 10.4459C28.4273 10.2852 28.0937 9.89783 28.034 9.42665L27.7329 7.0492ZM24.1199 30C27.3673 30 29.9999 27.3674 29.9999 24.12C29.9999 20.8726 27.3673 18.24 24.1199 18.24C20.8724 18.24 18.2399 20.8726 18.2399 24.12C18.2399 27.3674 20.8724 30 24.1199 30Z"/>
</mask>
<path d="M28.8742 10.4459L29.6053 8.41337L28.8742 10.4459ZM28.034 9.42665L30.1769 9.15522L28.034 9.42665ZM31.4656 10.8333L30.12 9.14364L31.4656 10.8333ZM30.1367 10.9694L29.2151 12.9229L30.1367 10.9694ZM34.9753 9.39947L33.4479 10.9268L34.9753 9.39947ZM33.3792 9.30931L32.0335 7.61968L33.3792 9.30931ZM38.6607 14.5687L40.3679 15.892L38.6607 14.5687ZM38.5608 12.985L40.0882 11.4577L38.5608 12.985ZM37.02 17.841L35.0681 18.766L37.02 17.841ZM37.1453 16.5237L38.8525 17.847L37.1453 16.5237ZM38.5564 19.8761L38.3132 22.0224L38.5564 19.8761ZM37.5232 19.041L35.4954 19.7849L37.5232 19.041ZM41.0708 27.6129L41.3422 29.7558L41.0708 27.6129ZM37.5897 28.7737L35.5518 28.0579L37.5897 28.7737ZM37.1453 31.4763L38.8525 30.153L37.1453 31.4763ZM37.02 30.159L38.9719 31.084L37.02 30.159ZM38.5608 35.015L37.0334 33.4877L38.5608 35.015ZM38.6607 33.4313L36.9535 34.7546L38.6607 33.4313ZM33.3791 38.6907L34.7248 37.0011L33.3791 38.6907ZM34.9753 38.6006L33.4479 37.0732L34.9753 38.6006ZM30.1367 37.0306L29.2151 35.0771L30.1367 37.0306ZM28.034 38.5733L25.8912 38.3019L28.034 38.5733ZM28.8742 37.5541L29.6053 39.5866L28.8742 37.5541ZM27.7329 40.9508L25.59 40.6794L27.7329 40.9508ZM20.2793 40.9351L18.1331 41.1784L20.2793 40.9351ZM19.1686 37.5695L19.8932 35.5347L19.1686 37.5695ZM16.502 37.1352L17.8254 38.8423L16.502 37.1352ZM17.8211 37.0107L18.749 35.0602L17.8211 37.0107ZM14.6887 38.5408L16.012 40.2479L14.6887 38.5408ZM9.42929 33.2592L11.1189 34.6048L9.42929 33.2592ZM10.9776 30.1545L9.02537 31.0788L10.9776 30.1545ZM10.8423 31.485L9.15265 30.1394L10.8423 31.485ZM9.37656 27.8925L9.64799 25.7496L9.64799 25.7496L9.37656 27.8925ZM10.3998 28.7445L8.36032 29.456L10.3998 28.7445ZM7.1692 27.6129L6.89777 29.7558L6.89777 29.7558L7.1692 27.6129ZM10.467 19.067L8.43768 18.3271L10.467 19.067ZM9.43301 19.9045L9.18977 17.7583L9.43301 19.9045ZM9.51941 13.1447L7.99206 11.6174L9.51941 13.1447ZM13.105 9.55916L11.5776 8.03181L13.105 9.55916ZM16.502 10.8649L15.1787 12.572L16.502 10.8649ZM20.0154 9.3933L17.8692 9.15006L20.0154 9.3933ZM27.7329 7.0492L25.59 7.32064L27.7329 7.0492ZM20.2793 7.06487L22.4256 7.30811L20.2793 7.06487ZM21.4717 8.16H26.5424V3.84H21.4717V8.16ZM22.1617 9.63654L22.4256 7.30811L18.1331 6.82162L17.8692 9.15006L22.1617 9.63654ZM18.749 12.9398C19.1206 12.763 19.5023 12.6045 19.8932 12.4653L18.4441 8.39561C17.914 8.58435 17.3965 8.79926 16.8931 9.03876L18.749 12.9398ZM13.3653 11.1664L15.1787 12.572L17.8253 9.15769L16.012 7.75209L13.3653 11.1664ZM11.0468 14.6721L14.6323 11.0865L11.5776 8.03181L7.99206 11.6174L11.0468 14.6721ZM12.5319 15.1694L11.1189 13.3952L7.73962 16.0864L9.15263 17.8607L12.5319 15.1694ZM12.4963 19.8069C12.6252 19.4534 12.77 19.1074 12.9299 18.7698L9.02534 16.9212C8.80878 17.3787 8.61249 17.8477 8.43768 18.3271L12.4963 19.8069ZM7.4281 22.3056L9.67626 22.0508L9.18977 17.7583L6.94162 18.0131L7.4281 22.3056ZM8.27999 26.4224V21.3517H3.96V26.4224H8.27999ZM9.64799 25.7496L7.44063 25.47L6.89777 29.7558L9.10512 30.0354L9.64799 25.7496ZM12.9299 29.2302C12.746 28.8419 12.582 28.4424 12.4393 28.0331L8.36032 29.456C8.55395 30.0111 8.77624 30.5526 9.02537 31.0788L12.9299 29.2302ZM11.1189 34.6048L12.5319 32.8306L9.15265 30.1394L7.73965 31.9136L11.1189 34.6048ZM14.6323 36.9135L11.0468 33.328L7.99209 36.3827L11.5776 39.9682L14.6323 36.9135ZM15.1787 35.428L13.3654 36.8336L16.012 40.2479L17.8254 38.8423L15.1787 35.428ZM19.8932 35.5347C19.5023 35.3955 19.1206 35.237 18.749 35.0602L16.8931 38.9613C17.3965 39.2008 17.9141 39.4157 18.4441 39.6044L19.8932 35.5347ZM22.4256 40.6919L22.1617 38.3635L17.8692 38.8499L18.1331 41.1784L22.4256 40.6919ZM26.5424 39.84H21.4717V44.16H26.5424V39.84ZM25.8912 38.3019L25.59 40.6794L29.8758 41.2222L30.1769 38.8448L25.8912 38.3019ZM29.2151 35.0771C28.8664 35.2416 28.5088 35.3901 28.1432 35.5216L29.6053 39.5866C30.1011 39.4083 30.5859 39.207 31.0583 38.9841L29.2151 35.0771ZM34.7248 37.0011L32.8112 35.4771L30.12 38.8564L32.0335 40.3803L34.7248 37.0011ZM37.0334 33.4877L33.4479 37.0732L36.5026 40.1279L40.0882 36.5424L37.0334 33.4877ZM35.4381 32.7996L36.9535 34.7546L40.3679 32.108L38.8525 30.153L35.4381 32.7996ZM35.5518 28.0579C35.4106 28.4599 35.249 28.8523 35.0681 29.2341L38.9719 31.084C39.217 30.5668 39.4362 30.0347 39.6277 29.4896L35.5518 28.0579ZM40.7994 25.47L38.3407 25.7815L38.8835 30.0672L41.3422 29.7558L40.7994 25.47ZM39.96 21.3517V26.4224H44.28V21.3517H39.96ZM38.3132 22.0224L40.8119 22.3056L41.2984 18.0131L38.7996 17.7299L38.3132 22.0224ZM35.0681 18.766C35.2253 19.0978 35.368 19.4377 35.4954 19.7849L39.5511 18.2972C39.3784 17.8263 39.185 17.3656 38.972 16.916L35.0681 18.766ZM36.9536 13.2454L35.4381 15.2004L38.8525 17.847L40.3679 15.892L36.9536 13.2454ZM33.4479 10.9268L37.0335 14.5124L40.0882 11.4577L36.5026 7.87212L33.4479 10.9268ZM32.8113 12.5229L34.7248 10.9989L32.0335 7.61968L30.12 9.14364L32.8113 12.5229ZM28.1432 12.4784C28.5088 12.6099 28.8664 12.7584 29.2151 12.9229L31.0584 9.01589C30.5859 8.79299 30.1011 8.59171 29.6053 8.41337L28.1432 12.4784ZM25.59 7.32064L25.8912 9.69808L30.1769 9.15522L29.8758 6.77777L25.59 7.32064ZM27.8399 24.12C27.8399 26.1745 26.1744 27.84 24.1199 27.84V32.16C28.5602 32.16 32.1599 28.5604 32.1599 24.12H27.8399ZM24.1199 20.4C26.1744 20.4 27.8399 22.0655 27.8399 24.12H32.1599C32.1599 19.6796 28.5602 16.08 24.1199 16.08V20.4ZM20.3999 24.12C20.3999 22.0655 22.0654 20.4 24.1199 20.4V16.08C19.6795 16.08 16.0799 19.6796 16.0799 24.12H20.3999ZM24.1199 27.84C22.0654 27.84 20.3999 26.1745 20.3999 24.12H16.0799C16.0799 28.5604 19.6795 32.16 24.1199 32.16V27.84ZM29.6053 8.41337C29.8592 8.50469 30.1263 8.75578 30.1769 9.15522L25.8912 9.69808C26.0611 11.0399 26.9955 12.0656 28.1432 12.4784L29.6053 8.41337ZM30.12 9.14364C30.4392 8.88943 30.8112 8.89928 31.0584 9.01589L29.2151 12.9229C30.3327 13.4502 31.7392 13.3767 32.8113 12.5229L30.12 9.14364ZM36.5026 7.87212C35.294 6.66349 33.3706 6.55484 32.0335 7.61968L34.7248 10.9989C34.3428 11.3032 33.7933 11.2721 33.4479 10.9268L36.5026 7.87212ZM40.3679 15.892C41.4048 14.5544 41.2849 12.6544 40.0882 11.4577L37.0335 14.5124C36.6916 14.1704 36.6573 13.6276 36.9536 13.2454L40.3679 15.892ZM38.972 16.916C39.0879 17.1607 39.0996 17.5282 38.8525 17.847L35.4381 15.2004C34.6078 16.2716 34.5445 17.6611 35.0681 18.766L38.972 16.916ZM38.7996 17.7299C39.2025 17.7755 39.4577 18.0425 39.5511 18.2972L35.4954 19.7849C35.9181 20.9373 36.9602 21.8691 38.3132 22.0224L38.7996 17.7299ZM44.28 21.3517C44.28 19.6424 42.9968 18.2055 41.2984 18.0131L40.8119 22.3056C40.3266 22.2506 39.96 21.84 39.96 21.3517H44.28ZM41.3422 29.7558C43.0212 29.5431 44.28 28.1148 44.28 26.4224H39.96C39.96 25.9389 40.3196 25.5308 40.7994 25.47L41.3422 29.7558ZM39.6277 29.4896C39.5377 29.7457 39.286 30.0162 38.8835 30.0672L38.3407 25.7815C36.989 25.9527 35.9589 26.899 35.5518 28.0579L39.6277 29.4896ZM38.8525 30.153C39.0996 30.4718 39.0879 30.8393 38.9719 31.084L35.0681 29.2341C34.5445 30.3389 34.6078 31.7284 35.4381 32.7996L38.8525 30.153ZM40.0882 36.5424C41.2849 35.3456 41.4047 33.4456 40.3679 32.108L36.9535 34.7546C36.6573 34.3724 36.6915 33.8296 37.0334 33.4877L40.0882 36.5424ZM32.0335 40.3803C33.3706 41.4452 35.294 41.3365 36.5026 40.1279L33.4479 37.0732C33.7932 36.7279 34.3428 36.6968 34.7248 37.0011L32.0335 40.3803ZM31.0583 38.9841C30.8112 39.1007 30.4392 39.1106 30.12 38.8564L32.8112 35.4771C31.7391 34.6233 30.3327 34.5498 29.2151 35.0771L31.0583 38.9841ZM30.1769 38.8448C30.1263 39.2442 29.8592 39.4953 29.6053 39.5866L28.1432 35.5216C26.9955 35.9344 26.0611 36.9601 25.8912 38.3019L30.1769 38.8448ZM26.5424 44.16C28.2348 44.16 29.6631 42.9012 29.8758 41.2222L25.59 40.6794C25.6508 40.1996 26.0589 39.84 26.5424 39.84V44.16ZM18.1331 41.1784C18.3255 42.8768 19.7624 44.16 21.4717 44.16V39.84C21.96 39.84 22.3706 40.2066 22.4256 40.6919L18.1331 41.1784ZM18.4441 39.6044C18.1865 39.5127 17.9152 39.2566 17.8692 38.8499L22.1617 38.3635C22.0069 36.9979 21.0599 35.9501 19.8932 35.5347L18.4441 39.6044ZM17.8254 38.8423C17.506 39.0899 17.138 39.0777 16.8931 38.9613L18.749 35.0602C17.6434 34.5342 16.2515 34.5964 15.1787 35.428L17.8254 38.8423ZM11.5776 39.9682C12.7744 41.1649 14.6744 41.2848 16.012 40.2479L13.3654 36.8336C13.7476 36.5373 14.2904 36.5716 14.6323 36.9135L11.5776 39.9682ZM7.73965 31.9136C6.67481 33.2506 6.78346 35.174 7.99209 36.3827L11.0468 33.328C11.3921 33.6733 11.4232 34.2228 11.1189 34.6048L7.73965 31.9136ZM9.02537 31.0788C8.90829 30.8315 8.89809 30.459 9.15265 30.1394L12.5319 32.8306C13.3869 31.7571 13.4593 30.3486 12.9299 29.2302L9.02537 31.0788ZM9.10512 30.0354C8.70182 29.9843 8.44988 29.7127 8.36032 29.456L12.4393 28.0331C12.0339 26.871 11.0025 25.9212 9.64799 25.7496L9.10512 30.0354ZM3.96 26.4224C3.96 28.1148 5.21876 29.5431 6.89777 29.7558L7.44063 25.47C7.92035 25.5308 8.27999 25.9389 8.27999 26.4224H3.96ZM6.94162 18.0131C5.24322 18.2055 3.96 19.6424 3.96 21.3517H8.27999C8.27999 21.84 7.91336 22.2506 7.4281 22.3056L6.94162 18.0131ZM8.43768 18.3271C8.53077 18.0718 8.78617 17.804 9.18977 17.7583L9.67626 22.0508C11.0318 21.8972 12.0751 20.9623 12.4963 19.8069L8.43768 18.3271ZM9.15263 17.8607C8.89807 17.541 8.90827 17.1685 9.02534 16.9212L12.9299 18.7698C13.4593 17.6515 13.3868 16.2429 12.5319 15.1694L9.15263 17.8607ZM7.99206 11.6174C6.78342 12.826 6.67478 14.7494 7.73962 16.0864L11.1189 13.3952C11.4231 13.7772 11.3921 14.3267 11.0468 14.6721L7.99206 11.6174ZM16.012 7.75209C14.6743 6.71523 12.7743 6.83509 11.5776 8.03181L14.6323 11.0865C14.2904 11.4284 13.7475 11.4627 13.3653 11.1664L16.012 7.75209ZM16.8931 9.03876C17.1379 8.92229 17.506 8.91016 17.8253 9.15769L15.1787 12.572C16.2515 13.4036 17.6433 13.4658 18.749 12.9398L16.8931 9.03876ZM17.8692 9.15006C17.9152 8.7434 18.1865 8.48732 18.4441 8.39561L19.8932 12.4653C21.0599 12.0499 22.0069 11.0021 22.1617 9.63654L17.8692 9.15006ZM26.5424 8.16C26.0589 8.16 25.6508 7.80035 25.59 7.32064L29.8758 6.77777C29.6631 5.09876 28.2348 3.84 26.5424 3.84V8.16ZM21.4717 3.84C19.7624 3.84 18.3255 5.12323 18.1331 6.82162L22.4256 7.30811C22.3706 7.79336 21.96 8.16 21.4717 8.16V3.84Z" fill="black" mask="url(#path-1-inside-1_964_1030)"/>
</svg>
