<?xml version="1.0" encoding="iso-8859-1"?><!-- Generator: Adobe Illustrator 21.1.0, SVG Export Plug-In . SVG Version: 6.00 Build 0)  --><svg xmlns="http://www.w3.org/2000/svg" xmlns:xlink="http://www.w3.org/1999/xlink" viewBox="0 0 80 80" width="20px" height="20px"><path style="fill:none;stroke:#000000;stroke-width:2;stroke-linecap:round;stroke-miterlimit:10;" d="M24.681,69h30.639c2.08,0,3.813-1.595,3.986-3.668L63,21H17l3.694,44.332C20.867,67.405,22.6,69,24.681,69z"/><path style="fill:none;stroke:#000000;stroke-width:2;stroke-linecap:round;stroke-miterlimit:10;" d="M35,11V9c0-1.105,0.895-2,2-2h6c1.105,0,2,0.895,2,2v2"/><g><g><path style="fill:none;stroke:#000000;stroke-width:2;stroke-linecap:round;stroke-miterlimit:10;" d="M64.5,16h-4l-1.394-2.789C58.428,11.856,57.043,11,55.528,11H24.472c-1.515,0-2.9,0.856-3.578,2.211L19.5,16h-4c-1.381,0-2.5,1.119-2.5,2.5c0,1.381,1.119,2.5,2.5,2.5h49c1.381,0,2.5-1.119,2.5-2.5C67,17.119,65.881,16,64.5,16z"/></g></g><circle cx="56" cy="16" r="1"/><circle cx="52" cy="16" r="1"/><circle cx="48" cy="16" r="1"/><circle cx="44" cy="16" r="1"/><circle cx="40" cy="16" r="1"/><circle cx="36" cy="16" r="1"/><circle cx="32" cy="16" r="1"/><circle cx="28" cy="16" r="1"/><circle cx="24" cy="16" r="1"/><line style="fill:none;stroke:#000000;stroke-width:2;stroke-linecap:round;stroke-miterlimit:10;stroke-dasharray:0.1,4;" x1="40" y1="27" x2="40" y2="64"/><line style="fill:none;stroke:#000000;stroke-width:2;stroke-linecap:round;stroke-miterlimit:10;stroke-dasharray:0.1,4;" x1="55" y1="27" x2="53" y2="64"/><line style="fill:none;stroke:#000000;stroke-width:2;stroke-linecap:round;stroke-miterlimit:10;stroke-dasharray:0.1,4;" x1="25" y1="27" x2="27" y2="64"/></svg>