<svg width="48" height="48" viewBox="0 0 48 48" fill="none" xmlns="http://www.w3.org/2000/svg">
<path fill-rule="evenodd" clip-rule="evenodd" d="M34.7952 18.2953H28.6175C26.6492 18.2953 25.0535 16.6996 25.0535 14.7313V8.79114H14.124C13.7303 8.79114 13.4112 9.11027 13.4112 9.50394V21.1199H34.7952V18.2953ZM8.4 21.1199H10.56V9.50394C10.56 7.5356 12.1557 5.93994 14.124 5.93994H25.0535H28.1423H28.2946L37.6464 15.2918V21.1199H39.6C40.9255 21.1199 42 22.1945 42 23.5199V32.3999C42 33.7254 40.9255 34.7999 39.6 34.7999H37.6464V38.0159C37.6464 39.9843 36.0507 41.5799 34.0824 41.5799H14.124C12.1557 41.5799 10.56 39.9843 10.56 38.0159V34.7999H8.4C7.07452 34.7999 6 33.7254 6 32.3999V23.5199C6 22.1945 7.07452 21.1199 8.4 21.1199ZM34.7952 38.0159V34.7999H13.4112V38.0159C13.4112 38.4096 13.7303 38.7287 14.124 38.7287H34.0824C34.4761 38.7287 34.7952 38.4096 34.7952 38.0159ZM27.9047 9.73458V14.7313C27.9047 15.1249 28.2238 15.4441 28.6175 15.4441H33.6142L27.9047 9.73458ZM9.56889 24.9545V31.5H13.9922V30.359H10.9528V28.7962H13.7525V27.6552H10.9528V26.0955H13.9794V24.9545H9.56889ZM17.6972 27.1854L16.3772 24.9545H14.808L16.8183 28.2273L14.7696 31.5H16.3548L17.6972 29.266H17.7483L19.0906 31.5H20.6823L18.64 28.2273L20.6375 24.9545H19.0747L17.7483 27.1854H17.6972ZM25.581 27.2461H26.9808C26.9361 26.8668 26.8338 26.5302 26.674 26.2362C26.5163 25.9421 26.3118 25.6939 26.0604 25.4915C25.8089 25.2869 25.5202 25.1314 25.1942 25.0249C24.8704 24.9183 24.5188 24.8651 24.1396 24.8651C23.5643 24.8651 23.0465 24.9972 22.5863 25.2614C22.1261 25.5234 21.7617 25.9048 21.4933 26.4055C21.2248 26.9062 21.0906 27.5135 21.0906 28.2273C21.0906 28.9389 21.2227 29.5451 21.4869 30.0458C21.7532 30.5465 22.1154 30.929 22.5735 31.1932C23.0337 31.4574 23.5558 31.5895 24.1396 31.5895C24.5593 31.5895 24.9354 31.5266 25.2678 31.4009C25.6023 31.2731 25.8899 31.1005 26.1307 30.8832C26.3736 30.6637 26.5664 30.4155 26.7092 30.1385C26.854 29.8594 26.9446 29.5696 26.9808 29.2692L25.581 29.2628C25.549 29.4375 25.4915 29.593 25.4084 29.7294C25.3274 29.8658 25.2251 29.9819 25.1016 30.0778C24.978 30.1715 24.8363 30.2429 24.6765 30.2919C24.5188 30.3409 24.3473 30.3654 24.1619 30.3654C23.8317 30.3654 23.5408 30.2844 23.2894 30.1225C23.038 29.9606 22.842 29.7209 22.7013 29.4034C22.5629 29.0859 22.4936 28.6939 22.4936 28.2273C22.4936 27.7734 22.5629 27.3878 22.7013 27.0703C22.8398 26.7507 23.0348 26.5078 23.2862 26.3416C23.5376 26.1733 23.8327 26.0891 24.1715 26.0891C24.359 26.0891 24.5327 26.1158 24.6925 26.169C24.8544 26.2223 24.9972 26.299 25.1207 26.3991C25.2443 26.4993 25.3455 26.6207 25.4244 26.7635C25.5032 26.9041 25.5554 27.065 25.581 27.2461ZM32.3837 24.9545H27.9732V31.5H32.3965V30.359H29.3571V28.7962H32.1568V27.6552H29.3571V26.0955H32.3837V24.9545ZM34.8678 24.9545H33.4839V31.5H37.6739V30.359H34.8678V24.9545Z" fill="#05A615"/>
</svg>
