<svg width="48" height="48" viewBox="0 0 48 48" fill="none" xmlns="http://www.w3.org/2000/svg">
<path fill-rule="evenodd" clip-rule="evenodd" d="M34.7952 18.2953H28.6175C26.6492 18.2953 25.0535 16.6996 25.0535 14.7313V8.79114H14.124C13.7303 8.79114 13.4112 9.11027 13.4112 9.50394V21.1199H34.7952V18.2953ZM8.4 21.1199H10.56V9.50394C10.56 7.5356 12.1557 5.93994 14.124 5.93994H25.0535H28.1423H28.2946L37.6464 15.2918V21.1199H39.6C40.9255 21.1199 42 22.1945 42 23.5199V32.3999C42 33.7254 40.9255 34.7999 39.6 34.7999H37.6464V38.0159C37.6464 39.9843 36.0507 41.5799 34.0824 41.5799H14.124C12.1557 41.5799 10.56 39.9843 10.56 38.0159V34.7999H8.4C7.07452 34.7999 6 33.7254 6 32.3999V23.5199C6 22.1945 7.07452 21.1199 8.4 21.1199ZM34.7952 38.0159V34.7999H13.4112V38.0159C13.4112 38.4096 13.7303 38.7287 14.124 38.7287H34.0824C34.4761 38.7287 34.7952 38.4096 34.7952 38.0159ZM27.9047 9.73458V14.7313C27.9047 15.1249 28.2238 15.4441 28.6175 15.4441H33.6142L27.9047 9.73458ZM14.6321 24.2273V31.5H16.1697V28.4957H19.1278V27.228H16.1697V25.495H19.4474V24.2273H14.6321ZM22.0194 31.5V24.2273H20.4817V31.5H22.0194ZM23.2844 24.2273V31.5H27.94V30.2322H24.8221V24.2273H23.2844ZM28.9583 24.2273V31.5H33.873V30.2322H30.4959V28.4957H33.6067V27.228H30.4959V25.495H33.8588V24.2273H28.9583Z" fill="black"/>
</svg>
