<svg width="48" height="48" viewBox="0 0 48 48" fill="none" xmlns="http://www.w3.org/2000/svg">
<path fill-rule="evenodd" clip-rule="evenodd" d="M34.7952 18.2953H28.6175C26.6492 18.2953 25.0535 16.6996 25.0535 14.7313V8.79114H14.124C13.7303 8.79114 13.4112 9.11027 13.4112 9.50394V21.1199H34.7952V18.2953ZM8.4 21.1199H10.56V9.50394C10.56 7.5356 12.1557 5.93994 14.124 5.93994H25.0535H28.1423H28.2946L37.6464 15.2918V21.1199H39.6C40.9255 21.1199 42 22.1945 42 23.5199V32.3999C42 33.7254 40.9255 34.7999 39.6 34.7999H37.6464V38.0159C37.6464 39.9843 36.0507 41.5799 34.0824 41.5799H14.124C12.1557 41.5799 10.56 39.9843 10.56 38.0159V34.7999H8.4C7.07452 34.7999 6 33.7254 6 32.3999V23.5199C6 22.1945 7.07452 21.1199 8.4 21.1199ZM34.7952 38.0159V34.7999H13.4112V38.0159C13.4112 38.4096 13.7303 38.7287 14.124 38.7287H34.0824C34.4761 38.7287 34.7952 38.4096 34.7952 38.0159ZM27.9047 9.73458V14.7313C27.9047 15.1249 28.2238 15.4441 28.6175 15.4441H33.6142L27.9047 9.73458ZM8.88821 24.7273L10.9692 32H12.4678L13.8491 27.245H13.906L15.2909 32H16.7895L18.8705 24.7273H17.1908L15.9869 29.7912H15.923L14.5984 24.7273H13.1602L11.8321 29.7805H11.7717L10.5679 24.7273H8.88821ZM25.5155 30.3878C25.8162 29.8314 25.9665 29.1567 25.9665 28.3636C25.9665 27.5705 25.8162 26.8958 25.5155 26.3395C25.2172 25.7831 24.81 25.3594 24.2939 25.0682C23.7802 24.7746 23.2025 24.6278 22.561 24.6278C21.9147 24.6278 21.3346 24.7746 20.8209 25.0682C20.3072 25.3594 19.9012 25.7831 19.6029 26.3395C19.3046 26.8958 19.1554 27.5705 19.1554 28.3636C19.1554 29.1544 19.3046 29.8279 19.6029 30.3842C19.9012 30.9406 20.3072 31.3655 20.8209 31.6591C21.3346 31.9527 21.9147 32.0994 22.561 32.0994C23.2025 32.0994 23.7802 31.9538 24.2939 31.6626C24.81 31.3691 25.2172 30.9441 25.5155 30.3878ZM24.1767 27.0639C24.3306 27.4167 24.4076 27.8499 24.4076 28.3636C24.4076 28.8774 24.3306 29.3106 24.1767 29.6634C24.0252 30.0161 23.811 30.2836 23.534 30.4659C23.257 30.6482 22.9327 30.7393 22.561 30.7393C22.1893 30.7393 21.865 30.6482 21.588 30.4659C21.311 30.2836 21.0955 30.0161 20.9417 29.6634C20.7901 29.3106 20.7144 28.8774 20.7144 28.3636C20.7144 27.8499 20.7901 27.4167 20.9417 27.0639C21.0955 26.7112 21.311 26.4437 21.588 26.2614C21.865 26.0791 22.1893 25.9879 22.561 25.9879C22.9327 25.9879 23.257 26.0791 23.534 26.2614C23.811 26.4437 24.0252 26.7112 24.1767 27.0639ZM29.9749 24.7273H27.1055V32H28.6432V29.4219H29.7656L31.1432 32H32.8406L31.2976 29.1746C31.3197 29.165 31.3417 29.1551 31.3634 29.1449C31.7587 28.9602 32.0606 28.6951 32.2689 28.3494C32.4772 28.0014 32.5814 27.5859 32.5814 27.103C32.5814 26.6224 32.4784 26.2045 32.2724 25.8494C32.0688 25.492 31.7717 25.2161 31.3811 25.022C30.9929 24.8255 30.5241 24.7273 29.9749 24.7273ZM28.6432 28.1861H29.6872C29.9808 28.1861 30.2246 28.1458 30.4188 28.0653C30.6129 27.9848 30.7573 27.8641 30.852 27.7031C30.9491 27.5421 30.9976 27.3421 30.9976 27.103C30.9976 26.8615 30.9491 26.6579 30.852 26.4922C30.7573 26.3265 30.6117 26.201 30.4152 26.1158C30.2211 26.0282 29.976 25.9844 29.6801 25.9844H28.6432V28.1861ZM33.668 32H36.2462C36.9848 32 37.6193 31.8544 38.1496 31.5632C38.6822 31.272 39.0906 30.8542 39.3747 30.3097C39.6612 29.7652 39.8044 29.1141 39.8044 28.3565C39.8044 27.6013 39.6612 26.9527 39.3747 26.4105C39.0906 25.8684 38.6846 25.4529 38.1567 25.1641C37.6287 24.8729 36.999 24.7273 36.2675 24.7273H33.668V32ZM36.1822 30.6825H35.2057V26.0447H36.1858C36.6403 26.0447 37.0227 26.1252 37.3328 26.2862C37.6429 26.4472 37.8761 26.6982 38.0324 27.0391C38.191 27.38 38.2703 27.8191 38.2703 28.3565C38.2703 28.8987 38.191 29.3414 38.0324 29.6847C37.8761 30.0256 37.6418 30.2777 37.3293 30.4411C37.0191 30.602 36.6368 30.6825 36.1822 30.6825Z" fill="#2A58FB"/>
</svg>
