<svg width="20" height="20" viewBox="0 0 20 20" fill="none" xmlns="http://www.w3.org/2000/svg">
<path id="Union" fill-rule="evenodd" clip-rule="evenodd" d="M11.4957 3.71638C13.6436 5.86427 13.6436 9.34667 11.4957 11.4946C9.34781 13.6424 5.8654 13.6424 3.71751 11.4946C1.56963 9.34667 1.56963 5.86427 3.71751 3.71638C5.8654 1.5685 9.34781 1.5685 11.4957 3.71638ZM13.72 11.9522C15.8079 9.02317 15.5379 4.93015 12.9099 2.30217C9.98097 -0.626764 5.23223 -0.626764 2.3033 2.30217C-0.625631 5.2311 -0.625631 9.97984 2.3033 12.9088C4.93089 15.5364 9.02307 15.8067 11.952 13.7198L17.1872 18.9549C17.6753 19.4431 18.4668 19.4431 18.955 18.9549C19.4431 18.4668 19.4431 17.6753 18.955 17.1872L13.72 11.9522Z" fill="black"/>
</svg>
